<svg width="36" height="38" viewBox="0 0 36 38" fill="none" xmlns="http://www.w3.org/2000/svg">
<g style="mix-blend-mode:exclusion">
<path d="M34.2806 37.8844C33.8184 37.8844 33.3947 37.6911 33.0481 37.3432L23.8809 27.9108C23.2261 27.2149 23.2261 26.1325 23.9194 25.4753C24.6127 24.8182 25.6912 24.8182 26.346 25.514L35.5132 34.9851C36.168 35.6809 36.168 36.7633 35.4747 37.4205C35.1665 37.7298 34.7043 37.8844 34.2806 37.8844Z" fill="white"/>
<path d="M15.6768 31.1579C7.01033 31.1579 0.00015711 24.1609 0.00015711 15.579C-0.0383603 6.99701 7.01033 0 15.6768 0C24.3432 0 31.3533 6.99701 31.3533 15.579C31.3533 24.1609 24.3047 31.1579 15.6768 31.1579ZM15.6768 3.44052C8.89769 3.44052 3.38969 8.89122 3.38969 15.579C3.38969 22.2667 8.89769 27.7174 15.6768 27.7174C22.4173 27.7174 27.9253 22.2667 27.9253 15.579C27.9253 8.89122 22.4173 3.44052 15.6768 3.44052Z" fill="white"/>
</g>
</svg>
